<?xml version="1.0" encoding="UTF-8" standalone="no"?>
<svg
   version="1.0"
   width="1024pt"
   height="1024pt"
   viewBox="0 0 1024 1024"
   preserveAspectRatio="xMidYMid"
   id="svg37"
   sodipodi:docname="logo-mac.svg"
   xml:space="preserve"
   inkscape:version="1.3.2 (091e20e, 2023-11-25)"
   xmlns:inkscape="http://www.inkscape.org/namespaces/inkscape"
   xmlns:sodipodi="http://sodipodi.sourceforge.net/DTD/sodipodi-0.dtd"
   xmlns="http://www.w3.org/2000/svg"
   xmlns:svg="http://www.w3.org/2000/svg"><defs
     id="defs37"><radialGradient
       id="radialGradient4366"
       cx="44.921001"
       cy="128.98"
       r="24.384001"
       gradientTransform="matrix(2.3879,-2.3206,2.9974,3.0844,-453.29,-148.72)"
       gradientUnits="userSpaceOnUse"><stop
         offset="0"
         id="stop1" /><stop
         stop-color="#0e50ff"
         offset="1"
         id="stop2" /></radialGradient><radialGradient
       id="radialGradient4374"
       cx="134.11"
       cy="131.91"
       r="23.691"
       gradientTransform="matrix(-0.15655,2.7876,-3.2685,-0.18356,586.26,-209.84)"
       gradientUnits="userSpaceOnUse"><stop
         offset="0"
         id="stop3" /><stop
         stop-color="#0c49ef"
         offset="1"
         id="stop4" /></radialGradient><radialGradient
       id="radialGradient10271"
       cx="89.565002"
       cy="39.494999"
       r="48.179001"
       gradientTransform="matrix(1.5996,0.049623,-0.015255,0.49173,-53.099,47.499)"
       gradientUnits="userSpaceOnUse"><stop
         offset="0"
         id="stop5" /><stop
         stop-color="#0c45e0"
         offset="1"
         id="stop6" /></radialGradient><radialGradient
       id="radialGradient4366-4"
       cx="44.921001"
       cy="128.98"
       r="24.384001"
       gradientTransform="matrix(2.3879,-2.3206,2.9974,3.0844,-453.29,-148.72)"
       gradientUnits="userSpaceOnUse"><stop
         offset="0"
         id="stop1-3" /><stop
         stop-color="#0e50ff"
         offset="1"
         id="stop2-6" /></radialGradient><radialGradient
       id="radialGradient4374-5"
       cx="134.11"
       cy="131.91"
       r="23.691"
       gradientTransform="matrix(-0.15655,2.7876,-3.2685,-0.18356,586.26,-209.84)"
       gradientUnits="userSpaceOnUse"><stop
         offset="0"
         id="stop3-9" /><stop
         stop-color="#0c49ef"
         offset="1"
         id="stop4-5" /></radialGradient><radialGradient
       id="radialGradient10271-4"
       cx="89.565002"
       cy="39.494999"
       r="48.179001"
       gradientTransform="matrix(1.5996,0.049623,-0.015255,0.49173,-53.099,47.499)"
       gradientUnits="userSpaceOnUse"><stop
         offset="0"
         id="stop5-9" /><stop
         stop-color="#0c45e0"
         offset="1"
         id="stop6-1" /></radialGradient></defs><sodipodi:namedview
     id="namedview37"
     pagecolor="#ffffff"
     bordercolor="#666666"
     borderopacity="1.0"
     inkscape:showpageshadow="2"
     inkscape:pageopacity="0.0"
     inkscape:pagecheckerboard="0"
     inkscape:deskcolor="#d1d1d1"
     inkscape:document-units="pt"
     inkscape:zoom="0.45990095"
     inkscape:cx="707.7611"
     inkscape:cy="783.86444"
     inkscape:window-width="1664"
     inkscape:window-height="856"
     inkscape:window-x="16"
     inkscape:window-y="25"
     inkscape:window-maximized="0"
     inkscape:current-layer="g37" /><g
     transform="matrix(0.1,0,0,-0.1,-40,1110)"
     fill="#000000"
     stroke="none"
     id="g37"><path
       d="m 14658,14173 c 12,-2 30,-2 40,0 9,3 -1,5 -23,4 -22,0 -30,-2 -17,-4 z"
       id="path1" /><path
       d="m 14828,14173 c 12,-2 30,-2 40,0 9,3 -1,5 -23,4 -22,0 -30,-2 -17,-4 z"
       id="path2" /><path
       d="m 16838,13733 c 7,-3 16,-2 19,1 4,3 -2,6 -13,5 -11,0 -14,-3 -6,-6 z"
       id="path3" /><path
       d="m 14390,13700 c 0,-5 5,-10 10,-10 6,0 10,5 10,10 0,6 -4,10 -10,10 -5,0 -10,-4 -10,-10 z"
       id="path4" /><path
       d="m 15110,13700 c 0,-5 5,-10 10,-10 6,0 10,5 10,10 0,6 -4,10 -10,10 -5,0 -10,-4 -10,-10 z"
       id="path5" /><path
       d="m 14688,13693 c 7,-3 16,-2 19,1 4,3 -2,6 -13,5 -11,0 -14,-3 -6,-6 z"
       id="path6" /><path
       d="m 14818,13693 c 6,-2 18,-2 25,0 6,3 1,5 -13,5 -14,0 -19,-2 -12,-5 z"
       id="path7" /><path
       d="m 4670,13620 c 0,-5 5,-10 10,-10 6,0 10,5 10,10 0,6 -4,10 -10,10 -5,0 -10,-4 -10,-10 z"
       id="path8" /><path
       d="m 511,13564 c 0,-11 3,-14 6,-6 3,7 2,16 -1,19 -3,4 -6,-2 -5,-13 z"
       id="path9" /><path
       d="m 3050,13540 c 0,-5 5,-10 10,-10 6,0 10,5 10,10 0,6 -4,10 -10,10 -5,0 -10,-4 -10,-10 z"
       id="path10" /><path
       d="m 1541,13524 c 0,-11 3,-14 6,-6 3,7 2,16 -1,19 -3,4 -6,-2 -5,-13 z"
       id="path11" /><path
       d="m 17232,13460 c 0,-14 2,-19 5,-12 2,6 2,18 0,25 -3,6 -5,1 -5,-13 z"
       id="path12" /><path
       d="m 15592,13445 c 0,-16 2,-22 5,-12 2,9 2,23 0,30 -3,6 -5,-1 -5,-18 z"
       id="path13" /><path
       d="m 13923,13425 c 0,-22 2,-30 4,-17 2,12 2,30 0,40 -3,9 -5,-1 -4,-23 z"
       id="path14" /><path
       d="m 14402,13410 c 0,-14 2,-19 5,-12 2,6 2,18 0,25 -3,6 -5,1 -5,-13 z"
       id="path15" /><path
       d="m 1541,13404 c 0,-11 3,-14 6,-6 3,7 2,16 -1,19 -3,4 -6,-2 -5,-13 z"
       id="path16" /><path
       d="m 15111,13404 c 0,-11 3,-14 6,-6 3,7 2,16 -1,19 -3,4 -6,-2 -5,-13 z"
       id="path17" /><path
       d="m 16890,13400 c 0,-5 5,-10 10,-10 6,0 10,5 10,10 0,6 -4,10 -10,10 -5,0 -10,-4 -10,-10 z"
       id="path18" /><path
       d="m 14750,13340 c 0,-5 5,-10 10,-10 6,0 10,5 10,10 0,6 -4,10 -10,10 -5,0 -10,-4 -10,-10 z"
       id="path19" /><path
       d="m 17231,13334 c 0,-11 3,-14 6,-6 3,7 2,16 -1,19 -3,4 -6,-2 -5,-13 z"
       id="path20" /><path
       d="m 13923,13255 c 0,-22 2,-30 4,-17 2,12 2,30 0,40 -3,9 -5,-1 -4,-23 z"
       id="path21" /><path
       d="m 14402,13270 c 0,-14 2,-19 5,-12 2,6 2,18 0,25 -3,6 -5,1 -5,-13 z"
       id="path22" /><path
       d="m 15112,13270 c 0,-14 2,-19 5,-12 2,6 2,18 0,25 -3,6 -5,1 -5,-13 z"
       id="path23" /><path
       d="m 15592,13235 c 0,-16 2,-22 5,-12 2,9 2,23 0,30 -3,6 -5,-1 -5,-18 z"
       id="path24" /><path
       d="m 1168,13153 c 7,-3 16,-2 19,1 4,3 -2,6 -13,5 -11,0 -14,-3 -6,-6 z"
       id="path25" /><path
       d="m 1288,13153 c 7,-3 16,-2 19,1 4,3 -2,6 -13,5 -11,0 -14,-3 -6,-6 z"
       id="path26" /><path
       d="m 16560,13059 c 0,-5 5,-7 10,-4 6,3 10,8 10,11 0,2 -4,4 -10,4 -5,0 -10,-5 -10,-11 z"
       id="path27" /><path
       d="m 16828,13063 c 6,-2 18,-2 25,0 6,3 1,5 -13,5 -14,0 -19,-2 -12,-5 z"
       id="path28" /><path
       d="m 16958,13063 c 7,-3 16,-2 19,1 4,3 -2,6 -13,5 -11,0 -14,-3 -6,-6 z"
       id="path29" /><path
       d="m 17230,13059 c 0,-5 5,-7 10,-4 6,3 10,8 10,11 0,2 -4,4 -10,4 -5,0 -10,-5 -10,-11 z"
       id="path30" /><path
       d="m 14390,12980 c 0,-5 5,-10 10,-10 6,0 10,5 10,10 0,6 -4,10 -10,10 -5,0 -10,-4 -10,-10 z"
       id="path31" /><path
       d="m 14688,12983 c 7,-3 16,-2 19,1 4,3 -2,6 -13,5 -11,0 -14,-3 -6,-6 z"
       id="path32" /><path
       d="m 14818,12983 c 6,-2 18,-2 25,0 6,3 1,5 -13,5 -14,0 -19,-2 -12,-5 z"
       id="path33" /><path
       d="m 15110,12980 c 0,-5 5,-10 10,-10 6,0 10,5 10,10 0,6 -4,10 -10,10 -5,0 -10,-4 -10,-10 z"
       id="path34" /><path
       d="m 14643,12503 c 9,-2 23,-2 30,0 6,3 -1,5 -18,5 -16,0 -22,-2 -12,-5 z"
       id="path35" /><path
       d="m 14853,12503 c 9,-2 23,-2 30,0 6,3 -1,5 -18,5 -16,0 -22,-2 -12,-5 z"
       id="path36" /><path
       d="m 3590,10780 v -320 H 2347 1104 l -32,-33 -32,-33 V 9152 7910 H 720 c -313,0 -320,0 -320,-20 0,-20 7,-20 320,-20 h 320 V 6935 6000 H 720 c -313,0 -320,0 -320,-20 0,-20 7,-20 320,-20 h 320 V 5025 4090 H 720 c -313,0 -320,0 -320,-20 0,-20 7,-20 320,-20 h 320 V 2807 1564 l 33,-32 33,-32 h 1242 1242 v -320 c 0,-313 0,-320 20,-320 20,0 20,7 20,320 v 320 h 935 935 v -320 c 0,-313 0,-320 20,-320 20,0 20,7 20,320 v 320 h 935 935 v -320 c 0,-313 0,-320 20,-320 20,0 20,7 20,320 v 320 h 1243 1243 l 32,33 32,33 v 1242 1242 h 320 c 313,0 320,0 320,20 0,20 -7,20 -320,20 h -320 v 935 935 h 320 c 313,0 320,0 320,20 0,20 -7,20 -320,20 h -320 v 935 935 h 320 c 313,0 320,0 320,20 0,20 -7,20 -320,20 h -320 v 1243 1243 l -33,32 -33,32 H 8692 7450 v 320 c 0,313 0,320 -20,320 -20,0 -20,-7 -20,-320 v -320 h -935 -935 v 320 c 0,313 0,320 -20,320 -20,0 -20,-7 -20,-320 v -320 h -935 -935 v 320 c 0,313 0,320 -20,320 -20,0 -20,-7 -20,-320 z m 0,-560 v -200 l -99,-49 c -207,-104 -481,-275 -666,-416 -108,-82 -318,-260 -360,-305 -16,-17 -46,-45 -66,-60 l -35,-29 -630,630 -629,629 h 1243 1242 z m 1160,170 c -356,-62 -735,-178 -1062,-324 l -58,-26 v 190 190 l 643,-1 h 642 z m 750,-829 v -859 l -87,-6 c -269,-19 -444,-48 -659,-110 -368,-106 -750,-316 -1025,-564 -35,-31 -72,-63 -81,-71 -17,-13 -18,37 -18,1018 v 1032 l 68,30 c 417,189 933,327 1372,368 63,6 131,13 150,14 19,2 90,5 158,5 l 122,2 z m 515,834 c 463,-55 922,-181 1328,-364 l 67,-30 V 8969 c 0,-981 -1,-1031 -17,-1018 -10,8 -47,40 -82,71 -275,248 -657,458 -1025,564 -215,62 -390,91 -658,110 l -88,6 v 860 861 l 173,-6 c 94,-4 231,-13 302,-22 z m 1395,-165 v -190 l -57,26 c -328,146 -707,262 -1063,324 l -165,29 h 643 l 642,1 z m 1896,-439 -630,-630 -35,29 c -20,15 -49,43 -66,60 -42,45 -252,223 -360,305 -185,141 -459,312 -666,416 l -99,49 v 200 200 H 8692 9935 Z M 2310,9101 c -15,-20 -43,-49 -60,-66 -45,-42 -223,-252 -305,-360 -141,-185 -312,-459 -416,-666 l -49,-99 h -200 -200 v 1242 1243 l 629,-629 630,-630 z m 7650,49 V 7910 h -200 -200 l -49,99 c -182,361 -435,722 -724,1030 l -89,94 629,629 c 345,345 629,628 630,628 2,0 3,-558 3,-1240 z M 3590,8958 V 7935 l -600,600 -599,599 22,24 c 12,13 74,70 138,126 293,260 574,455 894,622 77,41 141,74 143,74 1,0 2,-460 2,-1022 z m 4234,820 c 151,-92 320,-209 455,-316 100,-80 311,-263 348,-304 l 22,-24 -599,-599 -600,-600 v 1023 1023 l 121,-62 c 67,-34 181,-98 253,-141 z M 2965,8510 3565,7910 H 2542 1519 l 62,121 c 153,301 369,617 608,889 56,64 172,190 176,190 0,0 270,-270 600,-600 z m 5859,439 c 263,-297 474,-602 635,-918 l 62,-121 H 8498 7475 l 600,600 599,599 24,-22 c 13,-12 70,-74 126,-138 z M 5500,8285 v -375 h -922 l -923,1 60,55 c 147,134 369,288 555,387 340,181 792,302 1138,306 l 92,1 z m 321,360 c 561,-65 1099,-310 1509,-684 l 55,-50 -922,-1 h -923 v 375 375 h 78 c 42,0 134,-7 203,-15 z M 1434,7813 C 1288,7485 1172,7106 1110,6750 l -29,-165 v 643 l -1,642 h 190 190 z m 2115,40 c -8,-10 -40,-47 -71,-82 -248,-275 -458,-657 -564,-1025 -62,-215 -91,-390 -110,-658 l -6,-88 h -860 -861 l 6,173 c 20,541 158,1124 386,1630 l 30,67 h 1032 c 981,0 1031,-1 1018,-17 z m 1483,-9 c -283,-74 -554,-218 -776,-410 l -88,-77 -257,257 -256,256 h 735 l 735,-1 z m 468,-896 v -923 l -652,652 -652,652 24,27 c 43,46 162,139 260,204 225,148 498,253 750,289 41,6 86,13 100,15 14,2 58,4 98,5 l 72,1 z m 335,898 c 266,-47 506,-142 725,-286 98,-65 217,-158 260,-204 l 24,-27 -652,-652 -652,-652 v 924 924 l 108,-6 c 59,-4 143,-13 187,-21 z m 1294,-232 -257,-257 -88,77 c -222,192 -493,336 -776,410 l -93,25 735,1 h 735 z m 2442,189 c 228,-506 366,-1089 386,-1630 l 6,-173 h -861 -860 l -6,88 c -19,268 -48,443 -110,658 -106,368 -316,750 -564,1025 -31,35 -63,72 -71,82 -13,16 37,17 1018,17 h 1032 z m 388,-575 v -643 l -29,165 c -62,356 -178,735 -324,1063 l -26,57 h 190 190 z M 3590,6920 v -920 h -375 -375 v 78 c 0,42 7,134 15,203 57,491 243,949 543,1339 63,82 181,220 188,220 2,0 4,-414 4,-920 z m 476,324 c -192,-222 -336,-493 -410,-776 l -25,-93 -1,735 v 735 l 256,-256 257,-257 z m 3344,-136 -1,-733 -25,93 c -74,283 -218,554 -410,776 l -77,88 254,254 c 140,140 255,254 256,254 2,0 3,-330 3,-732 z m 212,537 c 260,-330 436,-707 522,-1114 32,-148 56,-347 56,-453 v -78 h -375 -375 v 923 l 1,922 50,-55 c 28,-30 82,-95 121,-145 z m -2797,-995 650,-650 h -924 -924 l 6,108 c 19,318 126,636 307,912 81,123 210,280 230,280 3,0 298,-292 655,-650 z m 2091,608 c 278,-293 466,-735 491,-1150 l 6,-108 h -924 -924 l 650,650 c 357,358 652,650 655,650 3,0 24,-19 46,-42 z M 2804,5873 c 19,-269 48,-444 110,-659 106,-368 316,-750 564,-1025 31,-35 63,-72 71,-81 13,-17 -37,-18 -1018,-18 H 1499 l -30,68 c -228,505 -366,1088 -386,1630 l -6,172 h 861 860 z m 786,-835 -1,-923 -50,55 c -257,281 -473,660 -584,1025 -66,217 -115,511 -115,687 v 78 h 375 375 z m 1233,270 -652,-652 -27,24 c -46,43 -139,162 -204,260 -181,275 -288,594 -307,913 l -6,107 h 924 924 z m 2584,545 c -19,-319 -126,-638 -307,-913 -65,-98 -158,-217 -204,-260 l -27,-24 -652,652 -652,652 h 924 924 z m 793,29 c 0,-176 -49,-470 -115,-687 -111,-365 -327,-744 -584,-1025 l -50,-55 -1,923 v 922 h 375 375 z m 1757,-94 C 9937,5246 9799,4663 9571,4158 l -30,-68 H 8509 c -981,0 -1031,1 -1018,18 8,9 40,46 71,81 248,275 458,657 564,1025 62,215 91,390 110,659 l 6,87 h 860 861 z M 5500,5008 v -921 l -107,6 c -319,19 -638,126 -913,307 -98,65 -217,158 -260,204 l -24,27 649,649 c 358,358 651,650 652,650 2,0 3,-415 3,-922 z m 1320,-404 c -43,-46 -162,-139 -260,-204 -275,-181 -594,-288 -912,-307 l -108,-6 v 924 924 l 652,-652 652,-652 z m -3104,698 c 75,-201 204,-418 350,-586 l 77,-88 -257,-257 -256,-256 v 735 l 1,735 25,-93 c 13,-52 41,-137 60,-190 z m 3694,-454 v -733 l -256,256 -257,257 77,88 c 104,120 206,274 277,419 58,118 133,326 145,405 4,22 8,40 10,40 2,0 4,-330 4,-732 z m -6235,53 c 57,-232 162,-536 259,-753 l 26,-58 h -190 -190 l 1,643 v 642 l 29,-165 c 16,-91 45,-230 65,-309 z m 8785,-171 v -640 h -190 -190 l 26,58 c 148,330 273,746 326,1079 13,79 24,143 26,143 1,0 2,-288 2,-640 z M 4258,4525 c 220,-191 492,-335 774,-409 l 93,-25 -735,-1 h -735 l 255,255 c 140,140 256,255 258,255 2,0 42,-34 90,-75 z m 2872,-180 255,-255 h -735 l -735,1 93,25 c 283,74 559,221 772,408 47,41 87,75 90,75 3,1 120,-114 260,-254 z M 1529,3951 c 104,-207 275,-481 416,-666 82,-108 260,-318 305,-360 17,-16 45,-46 60,-66 l 29,-35 -630,-630 -629,-629 v 1243 1242 h 200 200 z m 1436,-501 -599,-599 -24,22 c -41,37 -224,248 -304,348 -169,213 -339,476 -457,708 l -62,121 h 1023 1023 z m 2535,225 v -375 h -78 c -176,0 -470,49 -687,115 -365,111 -744,327 -1025,584 l -55,50 923,1 h 922 z m 1830,324 c -281,-257 -660,-473 -1025,-584 -217,-66 -511,-115 -687,-115 h -78 v 375 375 h 923 l 922,-1 z m 2129,-70 c -118,-232 -288,-495 -457,-708 -80,-100 -263,-311 -304,-348 l -24,-22 -599,599 -600,600 H 8498 9521 Z M 9960,2808 V 1565 l -629,629 -630,630 29,35 c 15,20 43,50 60,66 45,42 223,252 305,360 141,185 312,459 416,666 l 49,99 h 200 200 z M 3590,3000 V 1979 l -121,62 c -352,179 -740,456 -1027,733 l -52,51 597,597 c 329,329 599,598 600,598 2,0 3,-459 3,-1020 z m 139,938 c 275,-248 657,-458 1025,-564 215,-62 390,-91 659,-110 l 87,-6 v -860 -861 l -172,6 c -542,20 -1125,158 -1630,386 l -68,30 v 1032 c 0,981 1,1031 18,1018 9,-8 46,-40 81,-71 z M 7410,2990 V 1959 l -67,-30 C 6837,1701 6254,1563 5713,1543 l -173,-6 v 861 860 l 88,6 c 268,19 443,48 658,110 376,108 744,312 1038,575 43,39 80,71 82,71 2,0 4,-464 4,-1030 z m 1217,-188 c -37,-41 -248,-224 -348,-304 -213,-169 -476,-339 -708,-457 l -121,-62 v 1023 1023 l 600,-600 599,-599 z m -6162,-92 c 42,-45 252,-223 360,-305 185,-141 459,-312 666,-416 l 99,-49 V 1740 1540 H 2348 1105 l 629,629 630,630 35,-29 c 20,-15 50,-43 66,-60 z m 6840,-540 630,-630 H 8692 7450 v 200 200 l 99,49 c 361,182 722,435 1029,723 52,49 94,88 95,88 1,0 286,-283 632,-630 z M 3865,1820 c 276,-110 587,-198 885,-250 l 165,-29 h -642 l -643,-1 v 190 190 l 58,-26 c 31,-14 111,-47 177,-74 z m 3545,-90 v -190 l -642,1 h -643 l 165,29 c 356,62 757,185 1060,324 30,13 56,25 58,25 1,1 2,-84 2,-189 z"
       id="path37" /><g
       id="g24"
       transform="matrix(112.17855,0,0,-112.17855,-6332.5209,17722.5)"><g
         transform="matrix(0.7537881,0,0,0.83751954,37.817088,8.7984756)"
         id="g8"><path
           d="m 42.344,81.454 0.15398,63.438 48.195,13.858 0.15398,-63.438 z"
           fill="url(#radialGradient4366)"
           id="path6-7"
           style="fill:url(#radialGradient4366-4)" /><path
           d="m 90.692,95.466 46.963,-14.628 -0.30795,63.284 -46.809,14.628 z"
           fill="url(#radialGradient4374)"
           id="path7-5"
           style="fill:url(#radialGradient4374-5)" /><path
           d="M 42.344,81.458 90.686,96.113 137.652,80.841 89.211,70.208 Z"
           fill="url(#radialGradient10271)"
           id="path8-5"
           style="fill:url(#radialGradient10271-4)" /></g><g
         transform="matrix(0.95203146,0,0,0.95203146,2.9535024,-0.6464381)"
         id="g18"><g
           id="g23"
           transform="translate(-0.24350727,-0.48442364)"><path
             d="m 74.201961,99.668 h 67.841999 c 6.6433,0 11.99092,5.1051 11.99092,11.447 0,6.3414 -5.34814,11.446 -11.99092,11.446 H 74.201961 C 67.558664,122.561 62.21,117.4559 62.21,111.115 c 0,-6.3414 5.34814,-11.447 11.991961,-11.447 z"
             fill="#0bac00"
             stroke-linejoin="bevel"
             stroke-width="1.36559"
             id="path9-4" /><g
             transform="translate(2.8494625,0.6823861)"
             id="g17"><g
               transform="scale(1.0723,0.93256)"
               fill="#ffffff"
               stroke-width="0.45609"
               aria-label="CraftIP"
               id="g16"><path
                 d="m 68.87,125.51 q -1.4787,0 -2.7348,-0.4365 -1.2471,-0.43649 -2.1468,-1.3006 -0.89971,-0.86407 -1.3986,-2.1557 -0.48994,-1.2917 -0.48994,-2.9842 0,-1.5767 0.47212,-2.8595 0.47212,-1.2828 1.3718,-2.2003 0.86408,-0.88189 2.1379,-1.3629 1.2828,-0.48103 2.7971,-0.48103 0.83735,0 1.5055,0.098 0.67701,0.0891 1.2471,0.24051 0.59684,0.16925 1.0779,0.38305 0.48994,0.20488 0.85517,0.38304 v 3.2158 H 73.1725 q -0.24942,-0.21379 -0.63247,-0.50776 -0.37414,-0.29396 -0.85517,-0.57902 -0.48994,-0.28505 -1.0601,-0.48103 -0.57011,-0.19597 -1.2204,-0.19597 -0.72155,0 -1.3718,0.2316 -0.65028,0.2227 -1.2026,0.74828 -0.52557,0.50775 -0.85517,1.3451 -0.32069,0.83735 -0.32069,2.031 0,1.2471 0.34741,2.0845 0.35632,0.83735 0.8908,1.3184 0.54339,0.48994 1.2115,0.70373 0.6681,0.20489 1.3184,0.20489 0.62356,0 1.2293,-0.18707 0.61465,-0.18707 1.1313,-0.50776 0.43649,-0.25833 0.81063,-0.55229 0.37414,-0.29397 0.61465,-0.50776 h 0.35632 v 3.1712 q -0.49885,0.2227 -0.95316,0.41868 -0.45431,0.19597 -0.95316,0.3385 -0.65028,0.18707 -1.2204,0.28506 -0.57011,0.098 -1.5678,0.098 z"
                 id="path10-1" /><path
                 d="m 83.149,118.31 h -0.28506 q -0.20488,-0.0713 -0.65919,-0.1069 -0.45431,-0.0356 -0.75718,-0.0356 -0.68592,0 -1.2115,0.0891 -0.52557,0.0891 -1.1313,0.30287 v 6.6988 h -3.2069 v -10.004 h 3.2069 v 1.4698 q 1.0601,-0.90862 1.844,-1.2026 0.7839,-0.30287 1.4431,-0.30287 0.16925,0 0.38304,0.009 0.21379,0.009 0.37414,0.0267 z"
                 id="path11-8" /><path
                 d="m 91.024,122.65 v -2.0845 q -0.65028,0.0534 -1.4075,0.15144 -0.75718,0.0891 -1.1491,0.21379 -0.48103,0.15144 -0.73936,0.4454 -0.24942,0.28506 -0.24942,0.75718 0,0.31178 0.05345,0.50776 0.05345,0.19598 0.26724,0.37414 0.20488,0.17816 0.48994,0.26724 0.28506,0.0802 0.8908,0.0802 0.48103,0 0.97097,-0.19598 0.49885,-0.19597 0.87298,-0.51666 z m 0,1.55 q -0.25833,0.19598 -0.64138,0.47213 -0.38304,0.27614 -0.72155,0.43649 -0.47212,0.21379 -0.97988,0.31178 -0.50776,0.10689 -1.1135,0.10689 -1.4253,0 -2.3873,-0.88189 -0.962,-0.88189 -0.96206,-2.2537 0,-1.0957 0.48994,-1.7905 0.48994,-0.69483 1.3896,-1.0957 0.8908,-0.40086 2.2092,-0.57011 1.3184,-0.16925 2.7348,-0.24943 v -0.0534 q 0,-0.82845 -0.67701,-1.1402 -0.67701,-0.32069 -1.9954,-0.32069 -0.79281,0 -1.6925,0.28506 -0.89971,0.27615 -1.2917,0.42758 H 85.0913 v -2.4141 q 0.50776,-0.13362 1.648,-0.31178 1.1491,-0.18707 2.2983,-0.18707 2.7348,0 3.9462,0.84626 1.2204,0.83736 1.2204,2.6368 v 6.8057 H 91.024 Z"
                 id="path12-8" /><path
                 d="m 103.64,113.75 h -0.24052 q -0.21379,-0.0624 -0.5612,-0.14253 -0.33851,-0.0802 -0.73046,-0.0802 -0.94425,0 -1.2828,0.3385 -0.3296,0.33851 -0.3296,1.3095 v 0.0802 h 2.4764 v 2.1736 h -2.3695 v 7.8301 h -3.2069 v -7.8301 h -1.3718 v -2.1736 h 1.3718 v -0.27615 q 0,-1.835 0.97097,-2.7526 0.97988,-0.91753 2.9575,-0.91753 0.71264,0 1.2917,0.0534 0.57902,0.0445 1.0244,0.12471 z"
                 id="path13-3" /><path
                 d="m 111.25,125.17 q -0.51666,0.13362 -1.0957,0.20489 -0.57902,0.0802 -1.4164,0.0802 -1.8707,0 -2.7882,-0.75718 -0.90862,-0.75718 -0.90862,-2.5922 v -4.6767 h -1.3184 v -2.1736 h 1.3184 v -2.8595 h 3.2069 v 2.8595 h 3.002 v 2.1736 h -3.002 v 3.5454 q 0,0.52557 0.009,0.91753 0.009,0.39195 0.14253,0.70373 0.12471,0.31178 0.43649,0.49885 0.32069,0.17816 0.92644,0.17816 0.24942,0 0.65028,-0.1069 0.40977,-0.10689 0.57011,-0.19597 h 0.26724 z"
                 id="path14-5" /><path
                 d="m 120.52,125.26 h -7.7678 v -2.3517 h 2.1736 v -8.5606 h -2.1736 v -2.3517 h 7.7678 v 2.3517 h -2.1736 v 8.5606 h 2.1736 z"
                 id="path15-2" /><path
                 d="m 134.25,116.18 q 0,0.8908 -0.31178,1.746 -0.31178,0.84626 -0.8908,1.4253 -0.79281,0.78391 -1.7727,1.1848 -0.97098,0.40086 -2.423,0.40086 h -2.129 v 4.3204 h -3.4207 v -13.264 h 5.6299 q 1.2649,0 2.129,0.2227 0.87299,0.21379 1.5411,0.65028 0.80172,0.52558 1.2204,1.3451 0.42758,0.81954 0.42758,1.9687 z m -3.5365,0.0802 q 0,-0.56121 -0.30287,-0.96207 -0.30287,-0.40977 -0.70373,-0.57011 -0.53448,-0.21379 -1.0422,-0.23161 -0.50776,-0.0267 -1.354,-0.0267 h -0.58793 v 3.973 h 0.97989 q 0.87298,0 1.4342,-0.1069 0.57012,-0.10689 0.95316,-0.42758 0.3296,-0.28506 0.47213,-0.67701 0.15143,-0.40086 0.15143,-0.97097 z"
                 id="path16-2" /></g></g></g></g></g></g></svg>
