<?xml version="1.0" encoding="UTF-8" standalone="no"?>
<!-- Created with Inkscape (http://www.inkscape.org/) -->

<svg
   width="512mm"
   height="512mm"
   viewBox="0 0 512 512"
   version="1.1"
   id="svg1"
   inkscape:version="1.3.2 (091e20e, 2023-11-25)"
   sodipodi:docname="logo-win.svg"
   xmlns:inkscape="http://www.inkscape.org/namespaces/inkscape"
   xmlns:sodipodi="http://sodipodi.sourceforge.net/DTD/sodipodi-0.dtd"
   xmlns="http://www.w3.org/2000/svg"
   xmlns:svg="http://www.w3.org/2000/svg">
  <sodipodi:namedview
     id="namedview1"
     pagecolor="#ffffff"
     bordercolor="#666666"
     borderopacity="1.0"
     inkscape:showpageshadow="2"
     inkscape:pageopacity="0.0"
     inkscape:pagecheckerboard="0"
     inkscape:deskcolor="#d1d1d1"
     inkscape:document-units="mm"
     inkscape:zoom="0.2102413"
     inkscape:cx="917.99279"
     inkscape:cy="922.74923"
     inkscape:window-width="1680"
     inkscape:window-height="997"
     inkscape:window-x="0"
     inkscape:window-y="25"
     inkscape:window-maximized="1"
     inkscape:current-layer="layer1" />
  <defs
     id="defs1">
    <radialGradient
       id="radialGradient4366-4"
       cx="44.921001"
       cy="128.98"
       r="24.384001"
       gradientTransform="matrix(2.3879,-2.3206,2.9974,3.0844,-453.29,-148.72)"
       gradientUnits="userSpaceOnUse">
      <stop
         offset="0"
         id="stop1-3" />
      <stop
         stop-color="#0e50ff"
         offset="1"
         id="stop2-6" />
    </radialGradient>
    <radialGradient
       id="radialGradient4374-5"
       cx="134.11"
       cy="131.91"
       r="23.691"
       gradientTransform="matrix(-0.15655,2.7876,-3.2685,-0.18356,586.26,-209.84)"
       gradientUnits="userSpaceOnUse">
      <stop
         offset="0"
         id="stop3-9" />
      <stop
         stop-color="#0c49ef"
         offset="1"
         id="stop4-5" />
    </radialGradient>
    <radialGradient
       id="radialGradient10271-4"
       cx="89.565002"
       cy="39.494999"
       r="48.179001"
       gradientTransform="matrix(1.5996,0.049623,-0.015255,0.49173,-53.099,47.499)"
       gradientUnits="userSpaceOnUse">
      <stop
         offset="0"
         id="stop5-9" />
      <stop
         stop-color="#0c45e0"
         offset="1"
         id="stop6-1" />
    </radialGradient>
    <radialGradient
       id="radialGradient4366-4-3"
       cx="44.921001"
       cy="128.98"
       r="24.384001"
       gradientTransform="matrix(2.3879,-2.3206,2.9974,3.0844,-453.29,-148.72)"
       gradientUnits="userSpaceOnUse">
      <stop
         offset="0"
         id="stop1-3-6" />
      <stop
         stop-color="#0e50ff"
         offset="1"
         id="stop2-6-5" />
    </radialGradient>
    <radialGradient
       id="radialGradient4374-5-5"
       cx="134.11"
       cy="131.91"
       r="23.691"
       gradientTransform="matrix(-0.15655,2.7876,-3.2685,-0.18356,586.26,-209.84)"
       gradientUnits="userSpaceOnUse">
      <stop
         offset="0"
         id="stop3-9-8" />
      <stop
         stop-color="#0c49ef"
         offset="1"
         id="stop4-5-1" />
    </radialGradient>
    <radialGradient
       id="radialGradient10271-4-4"
       cx="89.565002"
       cy="39.494999"
       r="48.179001"
       gradientTransform="matrix(1.5996,0.049623,-0.015255,0.49173,-53.099,47.499)"
       gradientUnits="userSpaceOnUse">
      <stop
         offset="0"
         id="stop5-9-7" />
      <stop
         stop-color="#0c45e0"
         offset="1"
         id="stop6-1-1" />
    </radialGradient>
  </defs>
  <g
     inkscape:label="Layer 1"
     inkscape:groupmode="layer"
     id="layer1">
    <g
       id="g24"
       transform="matrix(5.8109608,0,0,5.8109608,-357.97241,-352.27322)">
      <g
         transform="matrix(0.7537881,0,0,0.83751954,37.817088,8.7984756)"
         id="g8">
        <path
           d="m 42.344,81.454 0.15398,63.438 48.195,13.858 0.15398,-63.438 z"
           fill="url(#radialGradient4366)"
           id="path6-7"
           style="fill:url(#radialGradient4366-4-3)" />
        <path
           d="m 90.692,95.466 46.963,-14.628 -0.30795,63.284 -46.809,14.628 z"
           fill="url(#radialGradient4374)"
           id="path7-5"
           style="fill:url(#radialGradient4374-5-5)" />
        <path
           d="M 42.344,81.458 90.686,96.113 137.652,80.841 89.211,70.208 Z"
           fill="url(#radialGradient10271)"
           id="path8-5"
           style="fill:url(#radialGradient10271-4-4)" />
      </g>
      <g
         transform="matrix(0.95203146,0,0,0.95203146,2.9535024,-0.6464381)"
         id="g18">
        <g
           id="g23"
           transform="translate(-0.24350727,-0.48442364)">
          <path
             d="m 74.201961,99.668 h 67.841999 c 6.6433,0 11.99092,5.1051 11.99092,11.447 0,6.3414 -5.34814,11.446 -11.99092,11.446 H 74.201961 C 67.558664,122.561 62.21,117.4559 62.21,111.115 c 0,-6.3414 5.34814,-11.447 11.991961,-11.447 z"
             fill="#0bac00"
             stroke-linejoin="bevel"
             stroke-width="1.36559"
             id="path9-4" />
          <g
             transform="translate(2.8494625,0.6823861)"
             id="g17">
            <g
               transform="scale(1.0723,0.93256)"
               fill="#ffffff"
               stroke-width="0.45609"
               aria-label="CraftIP"
               id="g16">
              <path
                 d="m 68.87,125.51 q -1.4787,0 -2.7348,-0.4365 -1.2471,-0.43649 -2.1468,-1.3006 -0.89971,-0.86407 -1.3986,-2.1557 -0.48994,-1.2917 -0.48994,-2.9842 0,-1.5767 0.47212,-2.8595 0.47212,-1.2828 1.3718,-2.2003 0.86408,-0.88189 2.1379,-1.3629 1.2828,-0.48103 2.7971,-0.48103 0.83735,0 1.5055,0.098 0.67701,0.0891 1.2471,0.24051 0.59684,0.16925 1.0779,0.38305 0.48994,0.20488 0.85517,0.38304 v 3.2158 H 73.1725 q -0.24942,-0.21379 -0.63247,-0.50776 -0.37414,-0.29396 -0.85517,-0.57902 -0.48994,-0.28505 -1.0601,-0.48103 -0.57011,-0.19597 -1.2204,-0.19597 -0.72155,0 -1.3718,0.2316 -0.65028,0.2227 -1.2026,0.74828 -0.52557,0.50775 -0.85517,1.3451 -0.32069,0.83735 -0.32069,2.031 0,1.2471 0.34741,2.0845 0.35632,0.83735 0.8908,1.3184 0.54339,0.48994 1.2115,0.70373 0.6681,0.20489 1.3184,0.20489 0.62356,0 1.2293,-0.18707 0.61465,-0.18707 1.1313,-0.50776 0.43649,-0.25833 0.81063,-0.55229 0.37414,-0.29397 0.61465,-0.50776 h 0.35632 v 3.1712 q -0.49885,0.2227 -0.95316,0.41868 -0.45431,0.19597 -0.95316,0.3385 -0.65028,0.18707 -1.2204,0.28506 -0.57011,0.098 -1.5678,0.098 z"
                 id="path10-1" />
              <path
                 d="m 83.149,118.31 h -0.28506 q -0.20488,-0.0713 -0.65919,-0.1069 -0.45431,-0.0356 -0.75718,-0.0356 -0.68592,0 -1.2115,0.0891 -0.52557,0.0891 -1.1313,0.30287 v 6.6988 h -3.2069 v -10.004 h 3.2069 v 1.4698 q 1.0601,-0.90862 1.844,-1.2026 0.7839,-0.30287 1.4431,-0.30287 0.16925,0 0.38304,0.009 0.21379,0.009 0.37414,0.0267 z"
                 id="path11-8" />
              <path
                 d="m 91.024,122.65 v -2.0845 q -0.65028,0.0534 -1.4075,0.15144 -0.75718,0.0891 -1.1491,0.21379 -0.48103,0.15144 -0.73936,0.4454 -0.24942,0.28506 -0.24942,0.75718 0,0.31178 0.05345,0.50776 0.05345,0.19598 0.26724,0.37414 0.20488,0.17816 0.48994,0.26724 0.28506,0.0802 0.8908,0.0802 0.48103,0 0.97097,-0.19598 0.49885,-0.19597 0.87298,-0.51666 z m 0,1.55 q -0.25833,0.19598 -0.64138,0.47213 -0.38304,0.27614 -0.72155,0.43649 -0.47212,0.21379 -0.97988,0.31178 -0.50776,0.10689 -1.1135,0.10689 -1.4253,0 -2.3873,-0.88189 -0.962,-0.88189 -0.96206,-2.2537 0,-1.0957 0.48994,-1.7905 0.48994,-0.69483 1.3896,-1.0957 0.8908,-0.40086 2.2092,-0.57011 1.3184,-0.16925 2.7348,-0.24943 v -0.0534 q 0,-0.82845 -0.67701,-1.1402 -0.67701,-0.32069 -1.9954,-0.32069 -0.79281,0 -1.6925,0.28506 -0.89971,0.27615 -1.2917,0.42758 H 85.0913 v -2.4141 q 0.50776,-0.13362 1.648,-0.31178 1.1491,-0.18707 2.2983,-0.18707 2.7348,0 3.9462,0.84626 1.2204,0.83736 1.2204,2.6368 v 6.8057 H 91.024 Z"
                 id="path12-8" />
              <path
                 d="m 103.64,113.75 h -0.24052 q -0.21379,-0.0624 -0.5612,-0.14253 -0.33851,-0.0802 -0.73046,-0.0802 -0.94425,0 -1.2828,0.3385 -0.3296,0.33851 -0.3296,1.3095 v 0.0802 h 2.4764 v 2.1736 h -2.3695 v 7.8301 h -3.2069 v -7.8301 h -1.3718 v -2.1736 h 1.3718 v -0.27615 q 0,-1.835 0.97097,-2.7526 0.97988,-0.91753 2.9575,-0.91753 0.71264,0 1.2917,0.0534 0.57902,0.0445 1.0244,0.12471 z"
                 id="path13-3" />
              <path
                 d="m 111.25,125.17 q -0.51666,0.13362 -1.0957,0.20489 -0.57902,0.0802 -1.4164,0.0802 -1.8707,0 -2.7882,-0.75718 -0.90862,-0.75718 -0.90862,-2.5922 v -4.6767 h -1.3184 v -2.1736 h 1.3184 v -2.8595 h 3.2069 v 2.8595 h 3.002 v 2.1736 h -3.002 v 3.5454 q 0,0.52557 0.009,0.91753 0.009,0.39195 0.14253,0.70373 0.12471,0.31178 0.43649,0.49885 0.32069,0.17816 0.92644,0.17816 0.24942,0 0.65028,-0.1069 0.40977,-0.10689 0.57011,-0.19597 h 0.26724 z"
                 id="path14-5" />
              <path
                 d="m 120.52,125.26 h -7.7678 v -2.3517 h 2.1736 v -8.5606 h -2.1736 v -2.3517 h 7.7678 v 2.3517 h -2.1736 v 8.5606 h 2.1736 z"
                 id="path15-2" />
              <path
                 d="m 134.25,116.18 q 0,0.8908 -0.31178,1.746 -0.31178,0.84626 -0.8908,1.4253 -0.79281,0.78391 -1.7727,1.1848 -0.97098,0.40086 -2.423,0.40086 h -2.129 v 4.3204 h -3.4207 v -13.264 h 5.6299 q 1.2649,0 2.129,0.2227 0.87299,0.21379 1.5411,0.65028 0.80172,0.52558 1.2204,1.3451 0.42758,0.81954 0.42758,1.9687 z m -3.5365,0.0802 q 0,-0.56121 -0.30287,-0.96207 -0.30287,-0.40977 -0.70373,-0.57011 -0.53448,-0.21379 -1.0422,-0.23161 -0.50776,-0.0267 -1.354,-0.0267 h -0.58793 v 3.973 h 0.97989 q 0.87298,0 1.4342,-0.1069 0.57012,-0.10689 0.95316,-0.42758 0.3296,-0.28506 0.47213,-0.67701 0.15143,-0.40086 0.15143,-0.97097 z"
                 id="path16-2" />
            </g>
          </g>
        </g>
      </g>
    </g>
  </g>
</svg>
